HIERARCHY
ROOT Hips
{
	OFFSET 0.00 0.00 0.00
	CHANNELS 6 Xposition Yposition Zposition Xrotation Yrotation Zrotation
	JOINT Spine
	{
		OFFSET 0.00000 1.15266 1.72900
		CHANNELS 3 Xrotation Yrotation Zrotation
		JOINT Spine1
		{
			OFFSET 0.00000 0.40032 2.27031
			CHANNELS 3 Xrotation Yrotation Zrotation
			JOINT Spine2
			{
				OFFSET 0.00000 0.20092 2.29656
				CHANNELS 3 Xrotation Yrotation Zrotation
				JOINT Spine3
				{
					OFFSET 0.00000 0.00000 2.30533
					CHANNELS 3 Xrotation Yrotation Zrotation
					JOINT Neck
					{
						OFFSET 0.00000 -0.86449 6.05149
						CHANNELS 3 Xrotation Yrotation Zrotation
						JOINT Head
						{
							OFFSET 0.00000 -0.55043 3.12167
							CHANNELS 3 Xrotation Yrotation Zrotation
							End Site
							{
								OFFSET 0.00000 0.00000 3.73175
							}
						}
					}
					JOINT RightShoulder
					{
						OFFSET -0.78828 -1.31380 4.25672
						CHANNELS 3 Xrotation Yrotation Zrotation
						JOINT RightArm
						{
							OFFSET -3.91513 0.00000 0.00000
							CHANNELS 3 Xrotation Yrotation Zrotation
							JOINT RightForeArm
							{
								OFFSET -6.91491 0.00000 0.00000
								CHANNELS 3 Xrotation Yrotation Zrotation
								JOINT RightHand
								{
									OFFSET -6.09622 0.00000 0.00000
									CHANNELS 3 Xrotation Yrotation Zrotation
									JOINT RightHandEnd
									{
										OFFSET -1.74995 0.00000 0.00000
										CHANNELS 3 Xrotation Yrotation Zrotation
										End Site
										{
											OFFSET -1.74995 0.00000 0.00000
										}
									}
									JOINT RightHandThumb1
									{
										OFFSET -0.69998 -1.16663 -0.46665
										CHANNELS 3 Yrotation Xrotation Zrotation
										End Site
										{
											OFFSET -1.69032 -0.45292 0.00000
										}
									}
								}
							}
						}
					}
					JOINT LeftShoulder
					{
						OFFSET 0.78828 -1.31380 4.25672
						CHANNELS 3 Xrotation Yrotation Zrotation
						JOINT LeftArm
						{
							OFFSET 3.91513 0.00000 0.00000
							CHANNELS 3 Xrotation Yrotation Zrotation
							JOINT LeftForeArm
							{
								OFFSET 6.91491 0.00000 0.00000
								CHANNELS 3 Xrotation Yrotation Zrotation
								JOINT LeftHand
								{
									OFFSET 6.09622 0.00000 0.00000
									CHANNELS 3 Xrotation Yrotation Zrotation
									JOINT LeftHandEnd
									{
										OFFSET 1.74995 0.00000 0.00000
										CHANNELS 3 Xrotation Yrotation Zrotation
										End Site
										{
											OFFSET 1.74995 0.00000 0.00000
										}
									}
									JOINT LeftHandThumb1
									{
										OFFSET 0.69998 -1.16663 -0.46665
										CHANNELS 3 Yrotation Xrotation Zrotation
										End Site
										{
											OFFSET 1.69032 -0.45292 0.00000
										}
									}
								}
							}
						}
					}
				}
			}
		}
	}
	JOINT RightUpLeg
	{
		OFFSET -2.33857 0.00000 -0.68318
		CHANNELS 3 Xrotation Yrotation Zrotation
		JOINT RightLeg
		{
			OFFSET 0.00000 0.00000 -10.74496
			CHANNELS 3 Xrotation Yrotation Zrotation
			JOINT RightFoot
			{
				OFFSET 0.00000 0.00000 -10.93085
				CHANNELS 3 Xrotation Yrotation Zrotation
				JOINT RightToeBase
				{
					OFFSET 0.00000 -4.08727 -1.48765
					CHANNELS 3 Xrotation Yrotation Zrotation
					End Site
					{
						OFFSET 0.00000 -1.89187 -0.00000
					}
				}
			}
		}
	}
	JOINT LeftUpLeg
	{
		OFFSET 2.33857 0.00000 -0.68318
		CHANNELS 3 Xrotation Yrotation Zrotation
		JOINT LeftLeg
		{
			OFFSET 0.00000 0.00000 -10.74496
			CHANNELS 3 Xrotation Yrotation Zrotation
			JOINT LeftFoot
			{
				OFFSET 0.00000 0.00000 -10.93085
				CHANNELS 3 Xrotation Yrotation Zrotation
				JOINT LeftToeBase
				{
					OFFSET 0.00000 -4.08727 -1.48765
					CHANNELS 3 Xrotation Yrotation Zrotation
					End Site
					{
						OFFSET 0.00000 -1.89187 -0.00000
					}
				}
			}
		}
	}
}
MOTION
Frames: 10
Frame Time: 0.008342
 0.3262 -114.3272 24.4595 -7.5143 -0.6673 170.6673 -0.3379 -1.3143 0.1242 0.6442 -1.5563 -0.0669 0.2315 4.6104 3.1473 -1.3052 1.4486 0.0758 0.4603 -6.3465 -13.4684 3.3590 -6.6443 -23.4586 -10.5003 -1.0054 -9.2424 -3.7665 -5.5178 14.3993 0.0000 0.0000 10.5565 -5.8366 -2.8775 -6.3039 0.0000 -0.0000 -0.0000 -0.0000 -0.0000 0.0000 -31.5861 -9.0824 10.3775 23.4190 18.0171 -28.0521 -0.0000 0.0000 3.8091 2.9129 -9.9766 5.2977 -0.0000 -0.0000 0.0000 -0.0000 0.0000 0.0000 -9.3035 -3.0377 -15.1871 3.3770 0.0000 0.0000 -2.4709 3.0722 8.1772 1.5270 0.0000 0.0000 -8.0336 -6.7627 6.9748 5.3685 0.0000 0.0000 -6.3809 8.8112 -1.3277 -6.8786 0.0000 -0.0000
 0.3265 -114.3274 24.4582 -7.5253 -0.6274 170.6499 -0.3386 -1.2795 0.1287 0.6416 -1.5744 -0.0685 0.2160 4.6138 3.1838 -1.3113 1.4556 0.0778 0.4281 -6.3181 -13.3753 3.3197 -6.6585 -23.3310 -10.4745 -0.9877 -9.2272 -3.7630 -5.5248 14.4055 0.0000 0.0000 10.5567 -5.8697 -2.8712 -6.2827 0.0000 -0.0000 -0.0000 0.0000 -0.0000 -0.0000 -31.5690 -9.0925 10.3567 23.4187 18.0119 -28.0260 -0.0000 0.0000 3.8387 2.9136 -9.9967 5.2080 -0.0000 0.0000 -0.0000 0.0000 0.0000 0.0000 -9.3293 -3.0107 -15.1902 3.3844 0.0000 0.0000 -2.5091 3.0636 8.1593 1.5722 0.0000 0.0000 -8.0523 -6.7272 7.0010 5.3791 0.0000 0.0000 -6.3881 8.7945 -1.3296 -6.8560 0.0000 -0.0000
 0.3273 -114.3282 24.4568 -7.5528 -0.5850 170.6302 -0.3504 -1.2526 0.1327 0.6370 -1.5826 -0.0684 0.1994 4.6066 3.2309 -1.3188 1.4705 0.0785 0.3807 -6.2875 -13.2496 3.2647 -6.6749 -23.1638 -10.4473 -0.9693 -9.2048 -3.7597 -5.5324 14.4052 0.0000 0.0000 10.5598 -5.9015 -2.8622 -6.2585 -0.0000 0.0000 0.0000 0.0000 -0.0000 0.0000 -31.5596 -9.1135 10.3284 23.4256 18.0132 -27.9952 -0.0000 0.0000 3.8709 2.9174 -10.0272 5.1061 0.0000 -0.0000 0.0000 -0.0000 -0.0000 0.0000 -9.3762 -2.9850 -15.1922 3.3965 0.0000 0.0000 -2.5475 3.0561 8.1425 1.6169 0.0000 0.0000 -8.0936 -6.6940 7.0287 5.3989 0.0000 0.0000 -6.3989 8.7764 -1.3313 -6.8224 0.0000 -0.0000
 0.3286 -114.3288 24.4555 -7.5773 -0.5447 170.6102 -0.3571 -1.2295 0.1346 0.6327 -1.5924 -0.0651 0.1828 4.5995 3.2802 -1.3287 1.4839 0.0880 0.3196 -6.2466 -13.0979 3.1953 -6.6965 -22.9562 -10.4205 -0.9378 -9.1788 -3.7525 -5.5495 14.3973 0.0000 0.0000 10.5669 -5.9283 -2.8463 -6.2355 0.0000 -0.0000 -0.0000 -0.0000 -0.0000 0.0000 -31.5489 -9.1293 10.2956 23.4296 18.0080 -27.9604 -0.0000 0.0000 3.9048 2.9233 -10.0599 4.9967 0.0000 -0.0000 -0.0000 -0.0000 -0.0000 0.0000 -9.4157 -2.9623 -15.2001 3.4030 0.0000 0.0000 -2.5831 3.0488 8.1343 1.6580 0.0000 0.0000 -8.1298 -6.6637 7.0558 5.4179 0.0000 0.0000 -6.4114 8.7584 -1.3319 -6.7788 0.0000 -0.0000
 0.3305 -114.3294 24.4542 -7.6064 -0.5059 170.5858 -0.3631 -1.2115 0.1408 0.6287 -1.6060 -0.0655 0.1614 4.5935 3.3485 -1.3392 1.5061 0.0875 0.2470 -6.2105 -12.9128 3.1096 -6.7183 -22.7145 -10.3883 -0.9189 -9.1417 -3.7471 -5.5538 14.3801 0.0000 0.0000 10.5767 -5.9534 -2.8345 -6.2141 -0.0000 -0.0000 0.0000 0.0000 -0.0000 -0.0000 -31.5405 -9.1597 10.2598 23.4380 18.0081 -27.9272 -0.0000 0.0000 3.9378 2.9317 -10.0986 4.8880 0.0000 0.0000 -0.0000 0.0000 0.0000 0.0000 -9.4625 -2.9429 -15.1932 3.4149 0.0000 0.0000 -2.6171 3.0420 8.1189 1.6940 0.0000 0.0000 -8.1695 -6.6381 7.0896 5.4372 0.0000 0.0000 -6.4244 8.7422 -1.3356 -6.7256 0.0000 -0.0000
 0.3330 -114.3298 24.4531 -7.6333 -0.4714 170.5636 -0.3647 -1.2005 0.1448 0.6250 -1.6182 -0.0630 0.1403 4.5856 3.4167 -1.3516 1.5270 0.0964 0.1626 -6.1650 -12.7109 3.0127 -6.7458 -22.4397 -10.3598 -0.8856 -9.1064 -3.7370 -5.5702 14.3593 0.0000 0.0000 10.5879 -5.9689 -2.8159 -6.1956 0.0000 -0.0000 -0.0000 0.0000 -0.0000 0.0000 -31.5329 -9.1848 10.2201 23.4457 18.0030 -27.8940 -0.0000 0.0000 3.9689 2.9408 -10.1369 4.7832 -0.0000 -0.0000 -0.0000 0.0000 -0.0000 -0.0000 -9.5022 -2.9281 -15.1950 3.4210 0.0000 0.0000 -2.6457 3.0348 8.1149 1.7224 0.0000 0.0000 -8.2055 -6.6176 7.1182 5.4559 0.0000 0.0000 -6.4387 8.7278 -1.3368 -6.6645 0.0000 -0.0000
 0.3361 -114.3305 24.4521 -7.6686 -0.4430 170.5446 -0.3719 -1.1989 0.1459 0.6215 -1.6288 -0.0564 0.1193 4.5792 3.4835 -1.3651 1.5441 0.1090 0.0696 -6.1150 -12.4898 2.9032 -6.7760 -22.1440 -10.3329 -0.8513 -9.0671 -3.7239 -5.5834 14.3322 0.0000 0.0000 10.6000 -5.9763 -2.7971 -6.1812 0.0000 0.0000 -0.0000 -0.0000 -0.0000 0.0000 -31.5283 -9.2078 10.1780 23.4506 17.9970 -27.8576 -0.0000 0.0000 3.9921 2.9532 -10.1748 4.6896 -0.0000 0.0000 -0.0000 -0.0000 0.0000 -0.0000 -9.5489 -2.9205 -15.1988 3.4267 0.0000 0.0000 -2.6678 3.0274 8.1150 1.7420 0.0000 0.0000 -8.2516 -6.6063 7.1425 5.4778 0.0000 0.0000 -6.4545 8.7169 -1.3388 -6.5988 0.0000 -0.0000
 0.3397 -114.3307 24.4513 -7.6935 -0.4202 170.5264 -0.3668 -1.2004 0.1514 0.6179 -1.6414 -0.0570 0.0976 4.5670 3.5665 -1.3790 1.5700 0.1112 -0.0278 -6.0670 -12.2569 2.7857 -6.8073 -21.8313 -10.3035 -0.8272 -9.0260 -3.7085 -5.5843 14.3059 0.0000 0.0000 10.6093 -5.9818 -2.7840 -6.1723 -0.0000 0.0000 -0.0000 0.0000 -0.0000 -0.0000 -31.5239 -9.2370 10.1369 23.4580 17.9913 -27.8284 -0.0000 0.0000 4.0110 2.9641 -10.2103 4.6102 0.0000 0.0000 -0.0000 -0.0000 -0.0000 -0.0000 -9.5814 -2.9168 -15.1922 3.4308 0.0000 0.0000 -2.6850 3.0199 8.1110 1.7532 0.0000 0.0000 -8.2804 -6.5997 7.1674 5.4909 0.0000 0.0000 -6.4672 8.7092 -1.3424 -6.5308 0.0000 -0.0000
 0.3438 -114.3305 24.4507 -7.7121 -0.4060 170.5134 -0.3559 -1.2080 0.1553 0.6160 -1.6532 -0.0573 0.0767 4.5511 3.6486 -1.3934 1.5946 0.1147 -0.1282 -6.0143 -12.0194 2.6630 -6.8413 -21.5127 -10.2791 -0.7969 -8.9860 -3.6874 -5.5892 14.2797 0.0000 0.0000 10.6157 -5.9781 -2.7686 -6.1686 -0.0000 0.0000 0.0000 -0.0000 -0.0000 0.0000 -31.5195 -9.2625 10.0971 23.4630 17.9842 -27.8017 -0.0000 0.0000 4.0216 2.9771 -10.2419 4.5503 0.0000 0.0000 0.0000 -0.0000 0.0000 0.0000 -9.6014 -2.9200 -15.1922 3.4296 0.0000 0.0000 -2.6949 3.0124 8.1154 1.7555 0.0000 0.0000 -8.2989 -6.6010 7.1850 5.4993 0.0000 0.0000 -6.4788 8.7050 -1.3451 -6.4638 0.0000 -0.0000
 0.3484 -114.3308 24.4504 -7.7433 -0.3985 170.5074 -0.3554 -1.2249 0.1574 0.6126 -1.6632 -0.0561 0.0584 4.5355 3.7251 -1.4084 1.6175 0.1199 -0.2298 -5.9603 -11.7858 2.5374 -6.8757 -21.1941 -10.2580 -0.7731 -8.9508 -3.6622 -5.5855 14.2592 0.0000 0.0000 10.6166 -5.9717 -2.7570 -6.1698 0.0000 -0.0000 -0.0000 0.0000 -0.0000 -0.0000 -31.5184 -9.2844 10.0584 23.4689 17.9736 -27.7795 -0.0000 0.0000 4.0246 2.9887 -10.2681 4.5084 -0.0000 -0.0000 0.0000 -0.0000 -0.0000 0.0000 -9.6342 -2.9303 -15.1925 3.4306 0.0000 0.0000 -2.6977 3.0064 8.1197 1.7503 0.0000 0.0000 -8.3343 -6.6123 7.1982 5.5123 0.0000 0.0000 -6.4900 8.7041 -1.3527 -6.4010 0.0000 -0.0000
